<?xml version="1.0" encoding="UTF-8" standalone="no"?>
<!DOCTYPE svg PUBLIC "-//W3C//DTD SVG 1.1//EN" "http://www.w3.org/Graphics/SVG/1.1/DTD/svg11.dtd">
<svg width="100%" height="100%" viewBox="0 0 20 21" version="1.1" xmlns="http://www.w3.org/2000/svg" xmlns:xlink="http://www.w3.org/1999/xlink" xml:space="preserve" xmlns:serif="http://www.serif.com/" style="fill-rule:evenodd;clip-rule:evenodd;stroke-linejoin:round;stroke-miterlimit:2;">
    <g transform="matrix(1,0,0,1,-95.5261,-41.7418)">
        <g transform="matrix(3.47745,0,0,1.06855,47.2779,41.9097)">
            <g id="FB-Grey" serif:id="FB Grey" transform="matrix(1.8597,0,0,3.2982,-3.67311,-1.88128)">
                <g transform="matrix(0.172421,0,0,0.242523,-1.29297,0.649534)">
                    <ellipse cx="71.322" cy="20.369" rx="3.508" ry="2.784" style="fill:white;"/>
                </g>
                <g transform="matrix(0.154631,0,0,0.300307,-0.039267,-0.250217)">
                    <rect x="64.535" y="5.625" width="13.767" height="12.682" style="fill:white;"/>
                </g>
                <g id="Github" transform="matrix(0.159541,0,0,0.292755,1.36419,-7.42128)">
                    <g transform="matrix(20.0098,0,0,20.0098,50.5927,44.3315)">
                        <path d="M0.324,-0.1C0.324,-0.094 0.321,-0.092 0.314,-0.092C0.307,-0.09 0.303,-0.093 0.303,-0.1C0.303,-0.104 0.306,-0.105 0.313,-0.105C0.32,-0.107 0.324,-0.105 0.324,-0.1ZM0.271,-0.098C0.264,-0.099 0.261,-0.102 0.263,-0.107C0.265,-0.113 0.269,-0.114 0.275,-0.111C0.282,-0.11 0.285,-0.107 0.283,-0.102C0.282,-0.096 0.278,-0.095 0.271,-0.098ZM0.35,-0.111C0.356,-0.111 0.36,-0.109 0.36,-0.105C0.361,-0.102 0.358,-0.098 0.352,-0.096C0.345,-0.094 0.341,-0.096 0.341,-0.102C0.34,-0.107 0.343,-0.11 0.35,-0.111ZM0.479,-0.859C0.567,-0.859 0.649,-0.839 0.725,-0.797C0.8,-0.755 0.86,-0.698 0.903,-0.625C0.947,-0.552 0.969,-0.471 0.969,-0.383C0.969,-0.275 0.938,-0.178 0.878,-0.093C0.817,-0.007 0.738,0.051 0.641,0.084C0.63,0.087 0.622,0.085 0.616,0.08C0.61,0.075 0.607,0.068 0.607,0.061L0.607,-0.104C0.607,-0.145 0.596,-0.175 0.574,-0.193C0.603,-0.197 0.625,-0.201 0.641,-0.203C0.656,-0.206 0.676,-0.212 0.699,-0.221C0.723,-0.23 0.741,-0.242 0.753,-0.256C0.765,-0.27 0.776,-0.29 0.785,-0.316C0.794,-0.342 0.799,-0.374 0.799,-0.41C0.799,-0.435 0.795,-0.455 0.787,-0.471C0.779,-0.486 0.766,-0.504 0.748,-0.523C0.764,-0.564 0.762,-0.608 0.744,-0.656C0.731,-0.66 0.714,-0.658 0.691,-0.649C0.669,-0.641 0.65,-0.632 0.633,-0.621L0.609,-0.604C0.569,-0.615 0.528,-0.621 0.485,-0.621C0.443,-0.621 0.402,-0.615 0.363,-0.604C0.357,-0.609 0.348,-0.615 0.336,-0.622C0.324,-0.629 0.306,-0.638 0.282,-0.647C0.258,-0.657 0.24,-0.66 0.229,-0.656C0.209,-0.608 0.207,-0.564 0.223,-0.523C0.193,-0.491 0.178,-0.453 0.178,-0.41C0.178,-0.374 0.182,-0.342 0.191,-0.316C0.201,-0.29 0.211,-0.27 0.223,-0.256C0.234,-0.242 0.251,-0.23 0.273,-0.221C0.296,-0.212 0.315,-0.205 0.331,-0.202C0.347,-0.199 0.369,-0.196 0.396,-0.193C0.38,-0.178 0.369,-0.156 0.365,-0.127C0.352,-0.122 0.339,-0.118 0.325,-0.115C0.312,-0.113 0.294,-0.115 0.273,-0.123C0.253,-0.131 0.236,-0.146 0.223,-0.168C0.215,-0.182 0.205,-0.194 0.192,-0.202C0.18,-0.211 0.169,-0.215 0.16,-0.217L0.148,-0.219C0.12,-0.219 0.118,-0.209 0.145,-0.189C0.154,-0.184 0.163,-0.176 0.172,-0.164C0.181,-0.152 0.188,-0.142 0.191,-0.133L0.199,-0.117C0.204,-0.102 0.214,-0.089 0.227,-0.078C0.24,-0.068 0.254,-0.061 0.27,-0.059C0.285,-0.056 0.3,-0.055 0.314,-0.055C0.329,-0.055 0.34,-0.055 0.35,-0.057L0.363,-0.059C0.363,-0.043 0.364,-0.02 0.364,0.012C0.365,0.043 0.365,0.059 0.365,0.061C0.365,0.068 0.362,0.075 0.356,0.08C0.351,0.085 0.342,0.087 0.332,0.084C0.233,0.051 0.153,-0.007 0.092,-0.093C0.031,-0.178 0,-0.275 0,-0.383C0,-0.518 0.046,-0.632 0.138,-0.723C0.229,-0.814 0.343,-0.859 0.479,-0.859ZM0.189,-0.186C0.192,-0.188 0.195,-0.188 0.199,-0.184C0.203,-0.18 0.204,-0.176 0.201,-0.174C0.199,-0.171 0.195,-0.172 0.191,-0.176C0.188,-0.18 0.187,-0.183 0.189,-0.186ZM0.168,-0.201C0.171,-0.204 0.174,-0.204 0.178,-0.203C0.182,-0.201 0.183,-0.198 0.182,-0.195C0.18,-0.191 0.178,-0.191 0.174,-0.193C0.169,-0.196 0.167,-0.199 0.168,-0.201ZM0.232,-0.133C0.235,-0.137 0.239,-0.136 0.244,-0.131C0.249,-0.126 0.251,-0.121 0.248,-0.117C0.244,-0.113 0.24,-0.114 0.234,-0.119C0.229,-0.124 0.229,-0.129 0.232,-0.133ZM0.209,-0.16C0.213,-0.164 0.217,-0.163 0.221,-0.156C0.225,-0.151 0.225,-0.147 0.221,-0.145C0.217,-0.142 0.213,-0.144 0.21,-0.149C0.207,-0.155 0.206,-0.159 0.209,-0.16Z" style="fill:rgb(138,145,157);fill-rule:nonzero;"/>
                    </g>
                </g>
            </g>
        </g>
    </g>
</svg>
