<?xml version="1.0" encoding="UTF-8" standalone="no"?>
<!DOCTYPE svg PUBLIC "-//W3C//DTD SVG 1.1//EN" "http://www.w3.org/Graphics/SVG/1.1/DTD/svg11.dtd">
<svg width="100%" height="100%" viewBox="0 0 31 31" version="1.1" xmlns="http://www.w3.org/2000/svg" xmlns:xlink="http://www.w3.org/1999/xlink" xml:space="preserve" xmlns:serif="http://www.serif.com/" style="fill-rule:evenodd;clip-rule:evenodd;stroke-linejoin:round;stroke-miterlimit:2;">
    <g transform="matrix(1,0,0,1,-215.917,-297.472)">
        <g transform="matrix(4.61251,0,0,2.98562,202.772,268.855)">
            <g id="FB-Grey" serif:id="FB Grey">
                <g transform="matrix(0.216802,0,0,0.334938,-43.9612,-76.0691)">
                    <circle cx="231.239" cy="271.052" r="15.322" style="fill:rgb(138,145,157);"/>
                </g>
                <g transform="matrix(0.216802,0,0,0.334938,-42.7851,-76.0921)">
                    <g transform="matrix(21.9767,0,0,21.9767,217.573,279.372)">
                        <path d="M0.084,-0.088L0.164,-0.088C0.168,-0.088 0.17,-0.086 0.17,-0.082C0.183,-0.02 0.224,0.021 0.293,0.041C0.344,0.055 0.396,0.057 0.451,0.045C0.516,0.031 0.561,-0.008 0.584,-0.072C0.598,-0.109 0.605,-0.152 0.605,-0.203C0.607,-0.212 0.607,-0.23 0.607,-0.258C0.607,-0.285 0.607,-0.301 0.605,-0.305L0.604,-0.307C0.604,-0.305 0.603,-0.304 0.602,-0.302C0.6,-0.3 0.6,-0.298 0.6,-0.297C0.577,-0.255 0.549,-0.223 0.513,-0.2C0.477,-0.177 0.437,-0.165 0.393,-0.162C0.326,-0.16 0.268,-0.171 0.219,-0.196C0.169,-0.222 0.131,-0.261 0.103,-0.313C0.075,-0.366 0.059,-0.431 0.057,-0.508C0.057,-0.556 0.063,-0.601 0.074,-0.643C0.095,-0.714 0.131,-0.771 0.183,-0.813C0.234,-0.854 0.298,-0.875 0.375,-0.875C0.411,-0.875 0.446,-0.868 0.479,-0.853C0.511,-0.838 0.537,-0.82 0.557,-0.801C0.576,-0.781 0.591,-0.76 0.602,-0.738C0.603,-0.734 0.604,-0.733 0.605,-0.734L0.605,-0.854L0.691,-0.854L0.693,-0.205C0.692,-0.027 0.625,0.079 0.492,0.111C0.444,0.12 0.396,0.125 0.349,0.124C0.301,0.123 0.255,0.112 0.21,0.09C0.165,0.068 0.132,0.038 0.109,-0C0.095,-0.025 0.087,-0.054 0.084,-0.088ZM0.369,-0.805C0.313,-0.805 0.263,-0.782 0.219,-0.737C0.174,-0.692 0.15,-0.628 0.145,-0.543C0.141,-0.479 0.15,-0.421 0.172,-0.368C0.194,-0.315 0.231,-0.277 0.283,-0.252C0.309,-0.238 0.343,-0.231 0.386,-0.233C0.428,-0.235 0.465,-0.247 0.496,-0.27C0.54,-0.299 0.571,-0.342 0.589,-0.397C0.606,-0.453 0.611,-0.51 0.602,-0.57C0.592,-0.643 0.568,-0.701 0.529,-0.742C0.49,-0.784 0.437,-0.805 0.369,-0.805Z" style="fill:white;fill-rule:nonzero;"/>
                    </g>
                </g>
            </g>
        </g>
    </g>
</svg>
