<?xml version="1.0" encoding="UTF-8" standalone="no"?>
<!DOCTYPE svg PUBLIC "-//W3C//DTD SVG 1.1//EN" "http://www.w3.org/Graphics/SVG/1.1/DTD/svg11.dtd">
<svg width="100%" height="100%" viewBox="0 0 28 28" version="1.1" xmlns="http://www.w3.org/2000/svg" xmlns:xlink="http://www.w3.org/1999/xlink" xml:space="preserve" xmlns:serif="http://www.serif.com/" style="fill-rule:evenodd;clip-rule:evenodd;stroke-linejoin:round;stroke-miterlimit:2;">
    <g transform="matrix(1,0,0,1,-259.012,-223.445)">
        <g transform="matrix(5.06101,0,0,2.15009,201.831,214.761)">
            <g id="FB-Grey" serif:id="FB Grey">
                <g transform="matrix(0.197589,0,0,0.465097,-40.0458,-80.6459)">
                    <circle cx="273.707" cy="195.934" r="13.854" style="fill:rgb(138,145,157);"/>
                </g>
                <g transform="matrix(0.166314,0,0,0.391481,-31.3459,-66.1093)">
                    <g transform="matrix(23.9107,0,0,23.9107,262.359,204.053)">
                        <path d="M0.28,-0.534C0.324,-0.578 0.377,-0.6 0.439,-0.6C0.502,-0.6 0.555,-0.578 0.599,-0.534C0.642,-0.491 0.664,-0.438 0.664,-0.375C0.664,-0.313 0.642,-0.259 0.599,-0.216C0.555,-0.172 0.502,-0.15 0.439,-0.15C0.377,-0.15 0.324,-0.172 0.28,-0.216C0.237,-0.259 0.215,-0.313 0.215,-0.375C0.215,-0.438 0.237,-0.491 0.28,-0.534ZM0.336,-0.271C0.365,-0.243 0.399,-0.229 0.439,-0.229C0.48,-0.229 0.514,-0.243 0.543,-0.271C0.572,-0.3 0.586,-0.335 0.586,-0.375C0.586,-0.415 0.572,-0.45 0.543,-0.479C0.514,-0.507 0.48,-0.521 0.439,-0.521C0.399,-0.521 0.365,-0.507 0.336,-0.479C0.307,-0.45 0.293,-0.415 0.293,-0.375C0.293,-0.335 0.307,-0.3 0.336,-0.271ZM0.71,-0.646C0.72,-0.636 0.725,-0.624 0.725,-0.609C0.725,-0.595 0.72,-0.583 0.71,-0.572C0.7,-0.562 0.688,-0.557 0.674,-0.557C0.66,-0.557 0.647,-0.562 0.637,-0.572C0.626,-0.583 0.621,-0.595 0.621,-0.609C0.621,-0.624 0.626,-0.636 0.637,-0.646C0.647,-0.655 0.66,-0.66 0.674,-0.66C0.688,-0.66 0.7,-0.655 0.71,-0.646ZM0.875,-0.555C0.876,-0.52 0.877,-0.46 0.877,-0.375C0.877,-0.29 0.876,-0.23 0.875,-0.195C0.871,-0.116 0.847,-0.054 0.804,-0.011C0.76,0.033 0.699,0.056 0.619,0.059C0.584,0.061 0.524,0.062 0.439,0.062C0.355,0.062 0.295,0.061 0.26,0.059C0.18,0.055 0.119,0.031 0.076,-0.012C0.059,-0.027 0.046,-0.046 0.035,-0.066C0.025,-0.087 0.017,-0.107 0.013,-0.127C0.008,-0.146 0.006,-0.169 0.006,-0.195C0.003,-0.23 0.002,-0.29 0.002,-0.375C0.002,-0.46 0.003,-0.52 0.006,-0.557C0.01,-0.635 0.033,-0.695 0.076,-0.738C0.119,-0.783 0.18,-0.807 0.26,-0.811C0.295,-0.812 0.355,-0.813 0.439,-0.813C0.524,-0.813 0.584,-0.812 0.619,-0.811C0.699,-0.807 0.76,-0.783 0.804,-0.739C0.847,-0.696 0.871,-0.634 0.875,-0.555ZM0.781,-0.117C0.785,-0.128 0.788,-0.141 0.791,-0.157C0.794,-0.174 0.796,-0.193 0.797,-0.216C0.798,-0.239 0.799,-0.257 0.799,-0.271L0.799,-0.479C0.799,-0.493 0.798,-0.511 0.797,-0.534C0.796,-0.557 0.794,-0.576 0.791,-0.593C0.788,-0.609 0.785,-0.622 0.781,-0.633C0.766,-0.673 0.738,-0.701 0.697,-0.717C0.687,-0.721 0.674,-0.724 0.657,-0.727C0.641,-0.729 0.621,-0.731 0.599,-0.732C0.576,-0.734 0.558,-0.734 0.544,-0.734L0.336,-0.734C0.322,-0.734 0.303,-0.734 0.28,-0.732C0.257,-0.731 0.238,-0.729 0.222,-0.727C0.205,-0.724 0.192,-0.721 0.182,-0.717C0.141,-0.701 0.113,-0.673 0.098,-0.633C0.094,-0.622 0.09,-0.609 0.088,-0.593C0.085,-0.576 0.083,-0.557 0.082,-0.534C0.081,-0.511 0.08,-0.493 0.08,-0.479L0.08,-0.292C0.08,-0.28 0.08,-0.264 0.081,-0.244C0.082,-0.225 0.083,-0.208 0.084,-0.194C0.085,-0.181 0.087,-0.167 0.09,-0.152C0.092,-0.138 0.095,-0.126 0.098,-0.117C0.115,-0.077 0.143,-0.049 0.182,-0.033C0.192,-0.029 0.205,-0.026 0.222,-0.023C0.238,-0.021 0.257,-0.019 0.28,-0.018C0.303,-0.016 0.321,-0.016 0.335,-0.016L0.543,-0.016C0.557,-0.016 0.576,-0.016 0.599,-0.018C0.621,-0.019 0.641,-0.021 0.657,-0.023C0.674,-0.026 0.687,-0.029 0.697,-0.033C0.738,-0.05 0.766,-0.078 0.781,-0.117Z" style="fill:white;fill-rule:nonzero;"/>
                    </g>
                </g>
            </g>
        </g>
    </g>
</svg>
