<?xml version="1.0" encoding="UTF-8" standalone="no"?><!DOCTYPE svg PUBLIC "-//W3C//DTD SVG 1.1//EN" "http://www.w3.org/Graphics/SVG/1.1/DTD/svg11.dtd"><svg width="100%" height="100%" viewBox="0 0 1737 294" version="1.1" xmlns="http://www.w3.org/2000/svg" xmlns:xlink="http://www.w3.org/1999/xlink" xml:space="preserve" xmlns:serif="http://www.serif.com/" style="fill-rule:evenodd;clip-rule:evenodd;stroke-linejoin:round;stroke-miterlimit:2;"><g><path d="M1685.77,293.999l-1634.59,-0c-28.264,-0 -51.177,-22.912 -51.177,-51.178l0,-190.71c0,-28.265 22.913,-51.179 51.177,-51.179l1634.59,0c28.27,0 51.18,22.914 51.18,51.179l-0,190.71c-0,28.266 -22.91,51.178 -51.18,51.178Zm-1634.59,-284.066c-23.256,0 -42.177,18.921 -42.177,42.178l0,190.71c0,23.258 18.921,42.179 42.177,42.179l1634.59,0c23.26,0 42.18,-18.921 42.18,-42.179l-0,-190.71c-0,-23.257 -18.92,-42.178 -42.18,-42.178l-1634.59,0Z" style="fill:#dadcdd;fill-rule:nonzero;"/><path d="M482.655,182.385c5.384,0 10.529,-1.077 15.195,-3.111c4.666,-2.034 8.495,-4.905 11.366,-8.734c2.752,-3.709 4.188,-8.136 4.188,-13.161c-0,-5.384 -1.077,-9.691 -3.111,-12.922c-2.034,-3.23 -5.145,-5.742 -9.213,-7.657c-4.187,-1.794 -9.691,-3.35 -16.511,-4.546c-6.102,-1.077 -10.528,-2.513 -13.28,-4.308c-2.872,-1.794 -4.307,-4.307 -4.307,-7.776c-0,-2.992 1.435,-5.504 4.187,-7.418c2.752,-1.795 6.581,-2.752 11.606,-2.752c2.991,0 6.341,0.718 10.05,2.034c3.709,1.435 6.58,2.991 8.614,4.666c0.957,0.718 2.034,1.077 3.231,1.077c1.794,-0 3.469,-0.718 4.785,-2.154c1.317,-1.316 2.034,-2.991 2.034,-4.786c0,-2.393 -1.196,-4.546 -3.469,-6.341c-2.991,-2.512 -6.581,-4.427 -11.008,-5.982c-4.426,-1.556 -9.212,-2.273 -14.237,-2.273c-5.624,-0 -10.649,0.957 -15.195,2.871c-4.547,2.034 -8.136,4.786 -10.768,8.495c-2.632,3.709 -3.949,8.136 -3.949,13.161c0,13.759 8.734,21.895 26.203,24.407c6.939,1.077 11.964,2.513 15.195,4.547c3.23,2.034 4.785,4.905 4.785,8.495c-0,2.991 -1.555,5.384 -4.785,7.418c-3.231,2.034 -7.179,2.991 -11.606,2.991c-4.188,-0 -7.777,-0.598 -10.768,-1.795c-2.991,-1.196 -6.102,-3.111 -9.332,-5.743c-1.197,-0.957 -2.513,-1.436 -4.068,-1.436c-1.915,-0 -3.59,0.718 -4.906,2.034c-1.316,1.436 -2.034,3.111 -2.034,4.906c-0,2.273 1.077,4.427 3.231,6.341c3.948,3.47 8.136,5.863 12.562,7.298c4.427,1.436 9.572,2.154 15.315,2.154Z" style="fill:#444b57;fill-rule:nonzero;"/><path d="M573.464,117.178c-2.034,-0 -3.829,0.718 -5.145,2.034c-1.316,1.436 -2.034,3.231 -2.034,5.265l-0,30.39c-0,4.905 -1.077,8.494 -3.23,10.768c-2.154,2.393 -5.384,3.589 -9.811,3.589c-4.307,-0 -7.538,-1.196 -9.691,-3.589c-2.154,-2.274 -3.231,-5.863 -3.231,-10.768l0,-30.39c0,-2.034 -0.718,-3.829 -2.034,-5.265c-1.316,-1.316 -3.111,-2.034 -5.144,-2.034c-2.034,-0 -3.829,0.718 -5.145,2.034c-1.316,1.436 -2.034,3.231 -2.034,5.265l0,30.39c0,8.614 2.393,15.314 7.059,20.22c4.666,4.905 11.486,7.298 20.22,7.298c8.734,0 15.554,-2.393 20.34,-7.298c4.666,-4.906 7.059,-11.606 7.059,-20.22l0,-30.39c0,-2.034 -0.718,-3.829 -2.034,-5.265c-1.316,-1.316 -3.111,-2.034 -5.145,-2.034Z" style="fill:#444b57;fill-rule:nonzero;"/><path d="M629.336,115.982c-3.709,-0 -7.298,0.838 -10.768,2.632c-3.469,1.795 -6.102,3.948 -8.016,6.341l0,-0.478c0,-2.034 -0.718,-3.829 -2.034,-5.265c-1.316,-1.316 -3.111,-2.034 -5.145,-2.034c-2.033,-0 -3.828,0.718 -5.144,2.034c-1.316,1.436 -2.034,3.231 -2.034,5.265l0,73.342c0,2.154 0.718,3.948 2.034,5.265c1.316,1.316 3.111,2.034 5.144,2.034c2.034,-0 3.829,-0.718 5.145,-2.154c1.316,-1.316 2.034,-3.111 2.034,-5.145l0,-23.45c2.273,2.273 5.025,4.068 8.495,5.623c3.35,1.555 6.939,2.393 10.768,2.393c5.384,0 10.289,-1.436 14.716,-4.307c4.427,-2.752 7.897,-6.7 10.409,-11.845c2.513,-5.025 3.829,-10.768 3.829,-17.109c-0,-6.342 -1.316,-12.084 -3.829,-17.11c-2.632,-5.025 -6.221,-8.973 -10.648,-11.844c-4.427,-2.752 -9.452,-4.188 -14.956,-4.188Zm-1.794,53.242c-5.145,-0 -9.452,-1.914 -12.683,-5.743c-3.23,-3.829 -4.905,-8.614 -4.905,-14.357c-0,-5.743 1.675,-10.529 4.905,-14.358c3.231,-3.709 7.538,-5.623 12.683,-5.623c5.144,0 9.452,1.914 12.682,5.623c3.231,3.829 4.786,8.615 4.786,14.358c0,5.743 -1.675,10.528 -4.906,14.357c-3.23,3.829 -7.418,5.743 -12.562,5.743Z" style="fill:#444b57;fill-rule:nonzero;"/><path d="M703.874,115.982c-3.709,-0 -7.299,0.838 -10.768,2.632c-3.47,1.795 -6.102,3.949 -8.017,6.341l-0,-0.478c-0,-2.034 -0.718,-3.829 -2.034,-5.265c-1.316,-1.316 -3.11,-2.034 -5.144,-2.034c-2.034,-0 -3.829,0.718 -5.145,2.034c-1.316,1.436 -2.034,3.231 -2.034,5.265l-0,73.342c-0,2.154 0.718,3.949 2.034,5.265c1.316,1.316 3.111,2.034 5.145,2.034c2.034,-0 3.828,-0.718 5.144,-2.154c1.316,-1.316 2.034,-3.111 2.034,-5.145l-0,-23.45c2.274,2.273 5.025,4.068 8.495,5.623c3.35,1.556 6.939,2.393 10.768,2.393c5.384,0 10.29,-1.436 14.716,-4.307c4.427,-2.752 7.897,-6.7 10.41,-11.845c2.512,-5.025 3.828,-10.768 3.828,-17.109c0,-6.341 -1.316,-12.084 -3.828,-17.11c-2.633,-5.025 -6.222,-8.973 -10.649,-11.844c-4.427,-2.752 -9.452,-4.188 -14.955,-4.188Zm-1.795,53.242c-5.145,-0 -9.452,-1.914 -12.682,-5.743c-3.231,-3.829 -4.906,-8.614 -4.906,-14.357c0,-5.743 1.675,-10.529 4.906,-14.358c3.23,-3.709 7.537,-5.623 12.682,-5.623c5.145,0 9.452,1.914 12.682,5.623c3.231,3.829 4.786,8.615 4.786,14.358c-0,5.743 -1.675,10.528 -4.905,14.357c-3.231,3.829 -7.418,5.743 -12.563,5.743Z" style="fill:#444b57;fill-rule:nonzero;"/><path d="M806.767,149.243c0,-6.341 -1.436,-12.084 -4.308,-17.228c-2.871,-5.026 -6.819,-8.974 -11.725,-11.845c-5.025,-2.752 -10.529,-4.188 -16.511,-4.188c-6.102,-0 -11.605,1.436 -16.511,4.188c-4.905,2.871 -8.854,6.819 -11.725,11.845c-2.872,5.144 -4.307,10.887 -4.307,17.228c-0,6.342 1.435,12.085 4.307,17.11c2.871,5.144 6.82,9.093 11.725,11.844c4.906,2.752 10.409,4.188 16.511,4.188c5.982,0 11.486,-1.436 16.511,-4.188c4.906,-2.751 8.854,-6.7 11.725,-11.844c2.872,-5.025 4.308,-10.768 4.308,-17.11Zm-14.358,-0c-0,3.949 -0.837,7.418 -2.393,10.41c-1.675,2.991 -3.828,5.384 -6.58,7.059c-2.752,1.675 -5.863,2.512 -9.213,2.512c-3.35,-0 -6.341,-0.837 -9.093,-2.512c-2.752,-1.675 -5.025,-4.068 -6.58,-7.059c-1.675,-2.992 -2.513,-6.461 -2.513,-10.41c-0,-3.948 0.838,-7.418 2.513,-10.528c1.555,-2.991 3.828,-5.384 6.58,-7.059c2.752,-1.675 5.743,-2.513 9.093,-2.513c3.35,0 6.461,0.838 9.213,2.513c2.752,1.675 4.905,4.068 6.58,7.059c1.556,3.11 2.393,6.58 2.393,10.528Z" style="fill:#444b57;fill-rule:nonzero;"/><path d="M851.992,115.982c-3.948,-0 -7.537,0.838 -11.007,2.513c-3.47,1.794 -6.102,4.307 -7.897,7.537l0,-1.555c0,-2.034 -0.718,-3.829 -2.034,-5.264c-1.316,-1.317 -3.11,-2.034 -5.144,-2.034c-2.034,0 -3.829,0.717 -5.145,2.034c-1.316,1.435 -2.034,3.23 -2.034,5.264l0,49.413c0,2.034 0.718,3.829 2.034,5.145c1.316,1.436 3.111,2.154 5.145,2.154c2.034,0 3.828,-0.718 5.144,-2.154c1.316,-1.316 2.034,-3.111 2.034,-5.145l0,-28.356c0,-3.589 0.599,-6.7 1.915,-9.332c1.196,-2.512 2.752,-4.427 4.666,-5.743c1.914,-1.316 3.948,-1.914 5.982,-1.914c0.957,-0 1.914,0.119 2.752,0.359c0.837,0.239 1.316,0.359 1.555,0.478c1.556,0.599 2.872,0.838 4.068,0.838c1.795,0 3.231,-0.598 4.547,-1.914c1.316,-1.197 1.914,-2.992 1.914,-5.504c-0,-1.795 -0.837,-3.47 -2.393,-4.786c-1.675,-1.316 -3.709,-2.034 -6.102,-2.034Z" style="fill:#444b57;fill-rule:nonzero;"/><path d="M901.524,167.669c-0.837,-0 -1.794,0.239 -2.752,0.598c-1.076,0.359 -2.034,0.479 -2.632,0.479c-1.555,0 -2.752,-0.359 -3.589,-1.197c-0.838,-0.718 -1.316,-1.914 -1.316,-3.589l-0,-32.424l8.495,-0c1.914,-0 3.469,-0.598 4.785,-1.914c1.316,-1.197 1.915,-2.752 1.915,-4.547c-0,-1.914 -0.599,-3.47 -1.915,-4.786c-1.316,-1.316 -2.871,-1.914 -4.785,-1.914l-8.495,-0l-0,-7.657c-0,-2.034 -0.718,-3.829 -2.034,-5.265c-1.316,-1.316 -2.991,-2.034 -5.025,-2.034c-2.034,0 -3.829,0.718 -5.145,2.034c-1.436,1.436 -2.154,3.231 -2.154,5.265l0,7.657l-5.503,-0c-1.915,-0 -3.47,0.598 -4.786,1.795c-1.316,1.316 -1.914,2.871 -1.914,4.666c0,1.914 0.598,3.47 1.914,4.786c1.316,1.316 2.871,1.914 4.786,1.914l5.503,-0l0,33.022c0,6.82 1.675,11.366 5.145,13.4c3.35,2.154 7.538,3.231 12.443,3.231c2.991,0 5.623,-0.718 8.016,-2.274c2.274,-1.435 3.47,-3.23 3.47,-5.384c-0,-1.794 -0.479,-3.23 -1.316,-4.307c-0.957,-1.077 -2.034,-1.555 -3.111,-1.555Z" style="fill:#444b57;fill-rule:nonzero;"/><path d="M1026.91,115.982c-4.666,-0 -8.853,1.316 -12.562,4.068c-3.709,2.752 -6.581,5.743 -8.376,9.093c-2.751,-8.734 -9.212,-13.161 -19.262,-13.161c-4.068,-0 -7.777,0.957 -11.008,2.991c-3.35,2.034 -6.102,4.547 -8.255,7.418l-0,-1.914c-0,-2.034 -0.718,-3.829 -2.034,-5.264c-1.316,-1.317 -3.111,-2.034 -5.145,-2.034c-2.034,0 -3.829,0.717 -5.145,2.034c-1.316,1.435 -2.034,3.23 -2.034,5.264l0,49.413c0,2.034 0.718,3.829 2.034,5.145c1.316,1.436 3.111,2.154 5.145,2.154c2.034,0 3.829,-0.718 5.145,-2.154c1.316,-1.316 2.034,-3.111 2.034,-5.145l-0,-30.629c-0,-4.068 1.316,-7.418 3.828,-10.17c2.513,-2.632 5.983,-3.948 10.41,-3.948c4.307,0 7.298,1.197 9.093,3.709c1.675,2.513 2.512,5.982 2.512,10.409l0,30.629c0,2.034 0.718,3.829 2.034,5.145c1.316,1.436 3.111,2.154 5.145,2.154c2.034,0 3.828,-0.718 5.145,-2.154c1.316,-1.316 2.034,-3.111 2.034,-5.145l-0,-30.629c-0,-4.068 1.316,-7.418 3.828,-10.17c2.513,-2.632 5.982,-3.948 10.409,-3.948c4.307,0 7.299,1.197 9.093,3.709c1.675,2.513 2.513,5.982 2.513,10.409l-0,30.629c-0,2.034 0.718,3.829 2.034,5.145c1.316,1.436 3.111,2.154 5.145,2.154c2.033,0 3.828,-0.718 5.144,-2.154c1.316,-1.316 2.034,-3.111 2.034,-5.145l-0,-30.629c-0,-8.495 -1.555,-15.195 -4.546,-20.1c-2.991,-4.786 -8.495,-7.179 -16.392,-7.179Z" style="fill:#444b57;fill-rule:nonzero;"/><path d="M1120.83,147.688c0,-5.623 -1.436,-10.888 -4.187,-15.793c-2.752,-4.906 -6.461,-8.734 -11.127,-11.606c-4.667,-2.871 -9.692,-4.307 -14.956,-4.307c-5.384,-0 -10.409,1.316 -15.075,4.068c-4.667,2.752 -8.495,6.82 -11.367,11.965c-2.871,5.144 -4.307,11.246 -4.307,18.066c-0,6.102 1.316,11.606 4.068,16.511c2.752,4.905 6.581,8.854 11.606,11.606c4.905,2.751 10.768,4.187 17.468,4.187c3.828,0 7.657,-0.598 11.366,-1.914c3.709,-1.316 6.7,-2.872 8.973,-4.666c2.274,-1.795 3.351,-3.709 3.351,-5.863c0,-1.555 -0.599,-2.991 -1.795,-4.188c-1.197,-1.196 -2.632,-1.794 -4.307,-1.794c-1.316,0 -2.633,0.359 -4.068,1.077c-0.359,0.239 -1.077,0.717 -2.154,1.316c-1.077,0.718 -2.632,1.316 -4.427,1.914c-1.794,0.598 -4.427,0.957 -7.657,0.957c-4.307,-0 -8.136,-1.316 -11.606,-4.068c-3.469,-2.632 -5.623,-6.341 -6.58,-11.007l39.483,0c1.914,0 3.589,-0.598 5.025,-1.795c1.436,-1.196 2.153,-2.752 2.273,-4.666Zm-30.27,-18.545c3.709,0 7.059,1.197 10.05,3.589c2.991,2.393 4.547,5.265 4.906,8.615l-0,0.837l-31.347,0c1.675,-8.734 7.178,-13.041 16.391,-13.041Z" style="fill:#444b57;fill-rule:nonzero;"/><path d="M1227.79,149.243c-0,-6.341 -1.436,-12.084 -4.308,-17.228c-2.871,-5.026 -6.819,-8.974 -11.725,-11.845c-5.025,-2.752 -10.529,-4.188 -16.511,-4.188c-6.102,-0 -11.605,1.436 -16.511,4.188c-4.905,2.871 -8.854,6.819 -11.725,11.845c-2.871,5.144 -4.307,10.887 -4.307,17.228c0,6.342 1.436,12.085 4.307,17.11c2.871,5.144 6.82,9.093 11.725,11.845c4.906,2.751 10.409,4.187 16.511,4.187c5.982,0 11.486,-1.436 16.511,-4.187c4.906,-2.752 8.854,-6.701 11.725,-11.845c2.872,-5.025 4.308,-10.768 4.308,-17.11Zm-14.358,-0c0,3.949 -0.837,7.418 -2.393,10.41c-1.675,2.991 -3.828,5.384 -6.58,7.059c-2.752,1.675 -5.863,2.512 -9.213,2.512c-3.35,-0 -6.341,-0.837 -9.093,-2.512c-2.752,-1.675 -5.025,-4.068 -6.58,-7.059c-1.675,-2.992 -2.513,-6.461 -2.513,-10.41c-0,-3.948 0.838,-7.418 2.513,-10.528c1.555,-2.991 3.828,-5.384 6.58,-7.059c2.752,-1.675 5.743,-2.513 9.093,-2.513c3.35,0 6.461,0.838 9.213,2.513c2.752,1.675 4.905,4.068 6.58,7.059c1.556,3.11 2.393,6.58 2.393,10.528Z" style="fill:#444b57;fill-rule:nonzero;"/><path d="M1273.98,115.982c-4.188,-0 -7.897,1.077 -11.367,3.111c-3.469,2.034 -6.341,4.546 -8.494,7.418l-0,-2.034c-0,-2.034 -0.718,-3.829 -2.034,-5.264c-1.317,-1.317 -3.111,-2.034 -5.145,-2.034c-2.034,0 -3.829,0.717 -5.145,2.034c-1.316,1.435 -2.034,3.23 -2.034,5.264l-0,49.413c-0,2.034 0.718,3.829 2.034,5.145c1.316,1.436 3.111,2.154 5.145,2.154c2.034,0 3.828,-0.718 5.145,-2.154c1.316,-1.316 2.034,-3.111 2.034,-5.145l-0,-30.629c-0,-4.068 1.316,-7.418 3.948,-10.17c2.632,-2.632 6.221,-3.948 10.887,-3.948c4.427,0 7.658,1.197 9.452,3.709c1.795,2.513 2.752,5.982 2.752,10.409l0,30.629c0,2.034 0.718,3.829 2.034,5.145c1.316,1.436 3.111,2.154 5.145,2.154c2.034,0 3.829,-0.718 5.145,-2.154c1.316,-1.316 2.034,-3.111 2.034,-5.145l-0,-30.629c-0,-8.495 -1.556,-15.195 -4.666,-20.1c-3.111,-4.786 -8.735,-7.179 -16.87,-7.179Z" style="fill:#444b57;fill-rule:nonzero;"/><path d="M1409.89,168.746l-26.681,-35.296l26.083,-24.886c1.436,-1.436 2.154,-2.991 2.154,-4.666c0,-1.675 -0.599,-3.23 -1.915,-4.786c-1.316,-1.555 -2.871,-2.273 -4.666,-2.273c-2.034,0 -4.068,0.957 -5.863,2.752l-38.286,37.688l0,-32.543c0,-2.154 -0.718,-3.949 -2.034,-5.265c-1.316,-1.316 -3.111,-2.034 -5.264,-2.034c-2.274,-0 -4.068,0.718 -5.504,2.034c-1.436,1.436 -2.154,3.231 -2.154,5.265l-0,69.154c-0,2.034 0.718,3.829 2.154,5.145c1.316,1.436 3.111,2.154 5.264,2.154c2.274,0 4.068,-0.718 5.504,-2.034c1.316,-1.316 2.034,-3.111 2.034,-5.265l0,-18.784l11.366,-10.888l25.963,34.219c0.599,0.837 1.436,1.555 2.393,2.034c0.957,0.478 1.915,0.718 2.991,0.718c2.154,0 4.068,-0.718 5.743,-2.154c1.556,-1.436 2.393,-3.23 2.393,-5.384c0,-0.837 -0.119,-1.675 -0.478,-2.632c-0.359,-0.838 -0.718,-1.675 -1.197,-2.273Z" style="fill:#444b57;fill-rule:nonzero;"/><path d="M1481.92,149.243c-0,-6.341 -1.436,-12.084 -4.307,-17.228c-2.872,-5.026 -6.82,-8.974 -11.725,-11.845c-5.026,-2.752 -10.529,-4.188 -16.511,-4.188c-6.102,-0 -11.606,1.436 -16.511,4.188c-4.906,2.871 -8.854,6.819 -11.726,11.845c-2.871,5.144 -4.307,10.887 -4.307,17.228c0,6.342 1.436,12.085 4.307,17.11c2.872,5.144 6.82,9.093 11.726,11.845c4.905,2.751 10.409,4.187 16.511,4.187c5.982,0 11.485,-1.436 16.511,-4.187c4.905,-2.752 8.853,-6.701 11.725,-11.845c2.871,-5.025 4.307,-10.768 4.307,-17.11Zm-14.357,-0c0,3.949 -0.838,7.418 -2.393,10.41c-1.675,2.991 -3.829,5.384 -6.581,7.059c-2.752,1.675 -5.862,2.512 -9.212,2.512c-3.35,-0 -6.342,-0.837 -9.093,-2.512c-2.752,-1.675 -5.026,-4.068 -6.581,-7.059c-1.675,-2.992 -2.512,-6.461 -2.512,-10.41c-0,-3.948 0.837,-7.418 2.512,-10.528c1.555,-2.991 3.829,-5.384 6.581,-7.059c2.751,-1.675 5.743,-2.513 9.093,-2.513c3.35,0 6.46,0.838 9.212,2.513c2.752,1.675 4.906,4.068 6.581,7.059c1.555,3.11 2.393,6.58 2.393,10.528Z" style="fill:#444b57;fill-rule:nonzero;"/><path d="M1499.39,151.636l20.818,0c2.034,0 3.829,-0.718 5.265,-2.034c1.316,-1.316 2.034,-2.871 2.034,-4.905c0,-2.034 -0.718,-3.829 -2.034,-5.264c-1.436,-1.317 -3.231,-2.034 -5.265,-2.034l-20.818,0c-2.034,0 -3.828,0.717 -5.145,2.034c-1.435,1.316 -2.153,2.991 -2.153,5.025c0,2.034 0.718,3.828 2.153,5.144c1.317,1.316 3.111,2.034 5.145,2.034Z" style="fill:#444b57;fill-rule:nonzero;"/><path d="M1572.01,105.334c1.316,-0 2.872,0.239 4.786,0.718c0.479,0.119 0.957,0.119 1.436,0.239c0.359,0.12 0.837,0.12 1.196,0.12c1.556,-0 2.991,-0.599 4.068,-1.795c1.077,-1.197 1.675,-2.752 1.675,-4.666c0,-2.513 -1.077,-4.307 -3.23,-5.504c-2.273,-1.196 -4.786,-1.795 -7.777,-1.795c-7.777,0 -13.64,1.915 -17.708,5.624c-4.187,3.709 -6.221,8.614 -6.221,14.596l-0,5.504l-6.461,0c-1.914,0 -3.47,0.598 -4.786,1.795c-1.316,1.316 -1.914,2.871 -1.914,4.786c-0,1.914 0.598,3.469 1.914,4.666c1.316,1.316 2.872,1.914 4.786,1.914l6.461,-0l-0,42.354c-0,2.034 0.718,3.829 2.034,5.145c1.316,1.436 3.111,2.154 5.145,2.154c2.034,0 3.828,-0.718 5.144,-2.154c1.316,-1.316 2.034,-3.111 2.034,-5.145l0,-42.354l10.888,-0c1.914,-0 3.47,-0.598 4.786,-1.914c1.316,-1.197 1.914,-2.752 1.914,-4.666c0,-1.915 -0.598,-3.47 -1.914,-4.786c-1.316,-1.197 -2.872,-1.795 -4.786,-1.795l-10.888,0l0,-5.623c0,-1.795 0.598,-3.59 1.675,-5.145c1.077,-1.555 2.991,-2.273 5.743,-2.273Zm32.663,68.556l-0,-49.413c-0,-2.034 -0.718,-3.829 -2.034,-5.264c-1.316,-1.317 -3.11,-2.034 -5.144,-2.034c-2.034,0 -3.829,0.717 -5.145,2.034c-1.316,1.435 -2.034,3.23 -2.034,5.264l0,49.413c0,2.034 0.718,3.829 2.034,5.145c1.316,1.436 3.111,2.154 5.145,2.154c2.034,0 3.828,-0.718 5.144,-2.154c1.316,-1.316 2.034,-3.111 2.034,-5.145Zm-7.298,-64.488c2.752,-0 4.786,-0.479 5.982,-1.316c1.077,-0.838 1.675,-2.393 1.675,-4.667l-0,-2.273c-0,-2.273 -0.598,-3.828 -1.675,-4.666c-1.077,-0.837 -3.111,-1.316 -5.862,-1.316c-2.633,0 -4.547,0.479 -5.743,1.316c-1.197,0.838 -1.795,2.393 -1.795,4.666l0,2.273c0,2.274 0.598,3.829 1.675,4.667c1.077,0.837 2.991,1.316 5.743,1.316Z" style="fill:#444b57;fill-rule:nonzero;"/><path d="M308.447,151.88c-0,-50.698 -41.099,-91.796 -91.797,-91.796c-50.699,-0 -91.797,41.098 -91.797,91.796c-0,50.699 41.098,91.797 91.797,91.797c50.698,-0 91.797,-41.098 91.797,-91.797Z" style="fill:#25aae0;fill-rule:nonzero;"/><path d="M292.666,137.845c-1.933,-10.212 -7.431,-16.573 -13.065,-20.507c-5.826,-4.068 -12.805,-6.158 -19.911,-6.158l-100.85,-0c-3.509,-0 -4.852,3.425 -4.866,5.141c-0.001,0.223 0.007,1.119 0.007,1.119c0,0 -0.166,44.617 0.147,68.448c0.952,14.069 15.048,14.064 15.048,14.064c-0,0 46.022,-0.135 68.094,-0.272c1.035,-0.007 2.069,-0.118 3.073,-0.369c12.566,-3.145 13.866,-14.818 13.732,-21.327c25.259,1.403 43.081,-16.42 38.591,-40.139Zm-28.375,23.156c-5.386,0.673 -9.763,0.168 -9.763,0.168l-0,-32.984l6.628,-0c4.38,-0 8.607,1.824 11.465,5.144c2.012,2.337 3.621,5.627 3.621,10.17c0,11.107 -5.722,15.483 -11.951,17.502Z" style="fill:#fff;fill-rule:nonzero;"/><path d="M203.374,181.45c1.097,0.551 1.798,-0.135 1.798,-0.135c-0,0 16.051,-14.649 23.282,-23.087c6.432,-7.548 6.851,-20.268 -4.194,-25.02c-11.045,-4.752 -20.133,5.591 -20.133,5.591c-7.881,-8.667 -19.807,-8.228 -25.324,-2.363c-5.517,5.866 -3.591,15.934 0.525,21.537c3.863,5.26 20.843,20.395 23.417,22.954c-0,0 0.188,0.197 0.629,0.523Z" style="fill:#f15e5e;fill-rule:nonzero;"/></g></svg>