<?xml version="1.0" encoding="UTF-8" standalone="no"?>
<!DOCTYPE svg PUBLIC "-//W3C//DTD SVG 1.1//EN" "http://www.w3.org/Graphics/SVG/1.1/DTD/svg11.dtd">
<svg width="100%" height="100%" viewBox="0 0 28 28" version="1.1" xmlns="http://www.w3.org/2000/svg" xmlns:xlink="http://www.w3.org/1999/xlink" xml:space="preserve" xmlns:serif="http://www.serif.com/" style="fill-rule:evenodd;clip-rule:evenodd;stroke-linejoin:round;stroke-miterlimit:2;">
    <g transform="matrix(1,0,0,1,-55.2882,-161.638)">
        <g transform="matrix(4.95309,0,0,3.0962,0.194493,144.645)">
            <g id="FB-Grey" serif:id="FB Grey">
                <g transform="matrix(0.201894,0,0,0.322976,-0.039267,-33.2354)">
                    <circle cx="68.917" cy="133.524" r="13.628" style="fill:rgb(138,145,157);"/>
                </g>
                <g id="linkedin-in-brands" transform="matrix(0.00716997,0,0,0.01147,13.8746,9.88976)">
                    <g transform="matrix(1,0,0,1,-224,-256)">
                        <path d="M100.28,448L7.4,448L7.4,148.9L100.28,148.9L100.28,448ZM53.79,108.1C24.09,108.1 0,83.5 0,53.8C-0,24.292 24.282,0.01 53.79,0.01C83.298,0.01 107.58,24.292 107.58,53.8C107.58,83.5 83.48,108.1 53.79,108.1ZM448,448L355.22,448L355.22,302.4C355.22,267.7 354.52,223.2 306.93,223.2C258.64,223.2 251.24,260.9 251.24,299.9L251.24,448L158.46,448L158.46,148.9L247.54,148.9L247.54,189.7L248.84,189.7C261.24,166.2 291.53,141.4 336.72,141.4C430.72,141.4 448,203.3 448,283.7L448,448Z" style="fill:white;fill-rule:nonzero;"/>
                    </g>
                </g>
            </g>
        </g>
    </g>
</svg>
