<?xml version="1.0" encoding="UTF-8" standalone="no"?>
<!DOCTYPE svg PUBLIC "-//W3C//DTD SVG 1.1//EN" "http://www.w3.org/Graphics/SVG/1.1/DTD/svg11.dtd">
<svg width="100%" height="100%" viewBox="0 0 19 19" version="1.1" xmlns="http://www.w3.org/2000/svg" xmlns:xlink="http://www.w3.org/1999/xlink" xml:space="preserve" xmlns:serif="http://www.serif.com/" style="fill-rule:evenodd;clip-rule:evenodd;stroke-linejoin:round;stroke-miterlimit:2;">
    <g transform="matrix(1,0,0,1,-96.1135,-75.7728)">
        <g transform="matrix(3.96383,0,0,1.35459,39.5109,75.9855)">
            <g id="FB-Grey" serif:id="FB Grey" transform="matrix(1.18908,0,0,1.81633,-2.68235,-2.77205)">
                <g transform="matrix(0.229537,0,0,0.439724,-40.3844,-26.6971)">
                    <circle cx="246.492" cy="72.395" r="8.408" style="fill:rgb(138,145,157);"/>
                </g>
                <g transform="matrix(0.38649,0,0,0.740398,-78.3964,-61.0271)">
                    <g transform="matrix(6.72125,0,0,6.72125,241.383,91.883)">
                        <path d="M0.896,-0.578C0.898,-0.573 0.898,-0.564 0.898,-0.553C0.898,-0.484 0.885,-0.415 0.859,-0.347C0.833,-0.278 0.797,-0.216 0.749,-0.159C0.701,-0.103 0.64,-0.057 0.564,-0.021C0.489,0.014 0.406,0.031 0.314,0.031C0.2,0.031 0.095,0.001 0,-0.061C0.014,-0.059 0.031,-0.059 0.049,-0.059C0.144,-0.059 0.229,-0.088 0.305,-0.146C0.259,-0.146 0.219,-0.16 0.185,-0.187C0.15,-0.213 0.126,-0.247 0.113,-0.287C0.126,-0.286 0.139,-0.285 0.15,-0.285C0.169,-0.285 0.187,-0.287 0.205,-0.291C0.174,-0.298 0.146,-0.311 0.121,-0.33C0.096,-0.35 0.077,-0.373 0.063,-0.401C0.048,-0.429 0.041,-0.46 0.041,-0.492L0.041,-0.496C0.07,-0.479 0.1,-0.47 0.133,-0.469C0.072,-0.51 0.041,-0.568 0.041,-0.641C0.041,-0.677 0.051,-0.712 0.07,-0.744C0.121,-0.68 0.183,-0.63 0.257,-0.592C0.33,-0.554 0.409,-0.533 0.492,-0.529C0.49,-0.545 0.488,-0.561 0.488,-0.576C0.488,-0.632 0.508,-0.68 0.548,-0.721C0.588,-0.761 0.635,-0.781 0.691,-0.781C0.751,-0.781 0.801,-0.76 0.842,-0.717C0.889,-0.726 0.932,-0.742 0.973,-0.766C0.957,-0.717 0.927,-0.68 0.883,-0.652C0.922,-0.658 0.961,-0.669 1,-0.686C0.971,-0.644 0.937,-0.608 0.896,-0.578Z" style="fill:white;fill-rule:nonzero;"/>
                    </g>
                </g>
            </g>
        </g>
    </g>
</svg>
