<?xml version="1.0" encoding="UTF-8" standalone="no"?>
<!DOCTYPE svg PUBLIC "-//W3C//DTD SVG 1.1//EN" "http://www.w3.org/Graphics/SVG/1.1/DTD/svg11.dtd">
<svg width="100%" height="100%" viewBox="0 0 2156 839" version="1.1" xmlns="http://www.w3.org/2000/svg" xmlns:xlink="http://www.w3.org/1999/xlink" xml:space="preserve" xmlns:serif="http://www.serif.com/" style="fill-rule:evenodd;clip-rule:evenodd;stroke-linejoin:round;stroke-miterlimit:2;">
    <g id="Artboard1" transform="matrix(0.948976,0,0,0.79733,-390.528,-259.197)">
        <rect x="411.526" y="325.081" width="2271.92" height="1051.95" style="fill:none;"/>
        <clipPath id="_clip1">
            <rect x="411.526" y="325.081" width="2271.92" height="1051.95"/>
        </clipPath>
        <g clip-path="url(#_clip1)">
            <g transform="matrix(-4.21624,0,0,3.92267,2858.54,-836.492)">
                <g transform="matrix(220.803,0,0,220.803,33.6735,514.286)">
                    <path d="M0.417,-0.208L0.417,-0.036L0.036,-0.266L0.036,-0.41L0.417,-0.641L0.417,-0.471L0.184,-0.339L0.417,-0.208Z" style="fill:rgb(58,83,114);fill-rule:nonzero;"/>
                </g>
            </g>
            <g transform="matrix(1.24663,0,0,1.55575,204.893,-467.914)">
                <g transform="matrix(461.632,0,0,461.632,802.716,1030.65)">
                    <path d="M0.072,0L0.072,-0.711L0.299,-0.711C0.333,-0.711 0.365,-0.707 0.395,-0.699C0.425,-0.692 0.451,-0.68 0.473,-0.665C0.496,-0.649 0.513,-0.629 0.526,-0.605C0.539,-0.58 0.545,-0.552 0.544,-0.519C0.544,-0.483 0.534,-0.453 0.515,-0.428C0.496,-0.404 0.47,-0.384 0.438,-0.371C0.457,-0.365 0.475,-0.357 0.49,-0.347C0.506,-0.337 0.519,-0.324 0.529,-0.31C0.54,-0.296 0.548,-0.28 0.553,-0.262C0.559,-0.245 0.562,-0.227 0.562,-0.207C0.562,-0.173 0.555,-0.143 0.543,-0.118C0.531,-0.092 0.513,-0.07 0.491,-0.053C0.469,-0.036 0.443,-0.023 0.413,-0.014C0.383,-0.005 0.351,0 0.316,0L0.072,0ZM0.19,-0.322L0.19,-0.096L0.318,-0.096C0.336,-0.096 0.353,-0.099 0.369,-0.104C0.384,-0.11 0.397,-0.117 0.408,-0.126C0.419,-0.136 0.428,-0.147 0.434,-0.161C0.441,-0.175 0.444,-0.19 0.444,-0.207C0.444,-0.225 0.441,-0.241 0.436,-0.255C0.43,-0.269 0.422,-0.281 0.412,-0.291C0.401,-0.301 0.389,-0.308 0.374,-0.314C0.359,-0.319 0.342,-0.322 0.323,-0.322L0.19,-0.322ZM0.19,-0.412L0.302,-0.412C0.32,-0.412 0.336,-0.414 0.351,-0.419C0.366,-0.423 0.38,-0.43 0.391,-0.438C0.402,-0.447 0.41,-0.457 0.417,-0.47C0.424,-0.483 0.427,-0.497 0.427,-0.513C0.427,-0.531 0.424,-0.546 0.417,-0.559C0.411,-0.572 0.403,-0.582 0.391,-0.59C0.38,-0.598 0.367,-0.604 0.352,-0.608C0.336,-0.612 0.319,-0.614 0.301,-0.614L0.19,-0.614L0.19,-0.412Z" style="fill:rgb(58,83,114);fill-rule:nonzero;"/>
                </g>
                <g transform="matrix(461.632,0,0,461.632,1079.74,1030.65)">
                    <path d="M0.442,-0.183C0.442,-0.2 0.438,-0.215 0.431,-0.228C0.424,-0.241 0.414,-0.252 0.402,-0.262C0.389,-0.271 0.373,-0.28 0.356,-0.287C0.338,-0.295 0.319,-0.301 0.298,-0.308C0.27,-0.316 0.242,-0.326 0.215,-0.338C0.188,-0.35 0.164,-0.365 0.142,-0.382C0.121,-0.399 0.104,-0.42 0.091,-0.443C0.077,-0.466 0.071,-0.493 0.071,-0.524C0.071,-0.555 0.077,-0.582 0.091,-0.606C0.104,-0.63 0.121,-0.651 0.144,-0.668C0.166,-0.685 0.191,-0.698 0.221,-0.707C0.25,-0.716 0.281,-0.721 0.313,-0.721C0.347,-0.721 0.379,-0.715 0.408,-0.705C0.438,-0.694 0.464,-0.679 0.487,-0.66C0.509,-0.641 0.527,-0.619 0.54,-0.592C0.553,-0.566 0.559,-0.536 0.56,-0.504L0.442,-0.504C0.441,-0.522 0.437,-0.538 0.431,-0.553C0.425,-0.568 0.416,-0.581 0.406,-0.591C0.395,-0.602 0.381,-0.61 0.366,-0.616C0.35,-0.622 0.332,-0.625 0.312,-0.625C0.294,-0.625 0.278,-0.623 0.263,-0.618C0.248,-0.614 0.235,-0.607 0.224,-0.598C0.213,-0.589 0.204,-0.579 0.198,-0.566C0.192,-0.554 0.189,-0.54 0.189,-0.524C0.189,-0.508 0.193,-0.493 0.202,-0.481C0.21,-0.469 0.221,-0.458 0.235,-0.449C0.249,-0.44 0.264,-0.432 0.282,-0.426C0.3,-0.419 0.318,-0.413 0.337,-0.407C0.367,-0.398 0.395,-0.388 0.422,-0.375C0.449,-0.362 0.473,-0.346 0.494,-0.328C0.514,-0.31 0.53,-0.289 0.542,-0.266C0.555,-0.242 0.561,-0.215 0.561,-0.184C0.561,-0.153 0.554,-0.125 0.541,-0.101C0.527,-0.076 0.509,-0.056 0.487,-0.04C0.464,-0.024 0.438,-0.011 0.409,-0.003C0.379,0.005 0.348,0.009 0.316,0.009C0.294,0.009 0.272,0.007 0.251,0.003C0.229,-0.001 0.209,-0.008 0.189,-0.016C0.17,-0.025 0.151,-0.035 0.134,-0.048C0.117,-0.06 0.103,-0.075 0.09,-0.091C0.078,-0.108 0.068,-0.126 0.061,-0.146C0.053,-0.167 0.05,-0.189 0.049,-0.213L0.167,-0.213C0.169,-0.192 0.173,-0.173 0.181,-0.157C0.189,-0.141 0.199,-0.128 0.212,-0.117C0.225,-0.107 0.241,-0.099 0.258,-0.094C0.275,-0.088 0.295,-0.085 0.316,-0.085C0.333,-0.085 0.35,-0.088 0.365,-0.092C0.381,-0.096 0.394,-0.102 0.405,-0.111C0.417,-0.119 0.426,-0.129 0.432,-0.141C0.439,-0.154 0.442,-0.167 0.442,-0.183Z" style="fill:rgb(58,83,114);fill-rule:nonzero;"/>
                </g>
                <g transform="matrix(461.632,0,0,461.632,1356.76,1030.65)">
                    <path d="M0.417,-0.165L0.195,-0.165L0.146,0L0.025,0L0.256,-0.711L0.359,-0.711L0.586,0L0.465,0L0.417,-0.165ZM0.225,-0.265L0.388,-0.265L0.308,-0.544L0.225,-0.265Z" style="fill:rgb(58,83,114);fill-rule:nonzero;"/>
                </g>
            </g>
            <g transform="matrix(1.19552,-0.0304412,0.0243926,1.49197,465.875,244.983)">
                <g id="rect5187" transform="matrix(0.261101,-0.0427846,0.0427846,0.261101,-40.7384,28.6765)">
                    <path d="M2488.66,568.989C2458.18,568.829 2426.55,570.162 2394.3,572.812L2345.2,725.057C2353.22,660.511 2359.86,621.382 2366.45,575.433C2161.58,596.831 1937.57,669.286 1820.69,756.917C1480.05,1012.32 1310.19,1225.55 1200.02,1406.07C1221.97,1492.1 1244.12,1597.01 1268.84,1725.25C1208.78,1644.85 1180.41,1649.14 1104.8,1577.63C1071.87,1641.36 1042.36,1700.58 1009.52,1755.43C921.836,1901.93 841.538,2212.18 897.424,2389.08C948.498,2550.74 1208.95,2239.24 1259.89,2154.72C1579.73,1624.07 1862.14,1374.71 2392.47,1115.41L1915.92,977.812C1958.86,984.846 1977.42,988.07 1989.55,990.34C2013.82,994.878 2012.39,995.613 2128.86,1015.43L2128.87,1015.43C2187.11,1025.34 2274.82,1040.02 2409.94,1062.33C2412.86,1062.6 2415.87,1062.95 2418.93,1063.34C2420,1063.48 2421.1,1063.64 2422.19,1063.79C2424.34,1064.09 2426.52,1064.43 2428.73,1064.79C2429.81,1064.96 2430.89,1065.13 2431.99,1065.32C2435.05,1065.85 2438.15,1066.41 2441.31,1067.05C2441.31,1067.05 2441.32,1067.04 2441.32,1067.05C2446.46,1068.07 2451.73,1069.26 2457.08,1070.53C2458.05,1070.76 2459.03,1071 2460.01,1071.24C2465.28,1072.52 2470.6,1073.89 2476.01,1075.39L2476.02,1075.39C2478.24,1074.35 2480.37,1073.31 2482.6,1072.26C2625.67,1005.35 2834.79,999.234 2804.18,731.516C2790.96,615.905 2657.2,569.871 2488.66,568.989L2488.66,568.989Z" style="fill:rgb(154,168,185);fill-rule:nonzero;"/>
                </g>
                <g id="path5176" transform="matrix(0.986839,-0.161705,0.161705,0.986839,-92.8916,-289.598)">
                    <path d="M188.494,1099.18L200.19,1033.31C216.64,1007.56 232.15,962.395 250.641,958.06C252.422,974.765 233.581,1024.78 224.926,1058.81C205.639,1065.14 196.908,1082.91 188.494,1099.18Z" style="fill:rgb(191,165,68);fill-rule:nonzero;"/>
                </g>
                <g id="path5183" transform="matrix(0.986839,-0.161705,0.161705,0.986839,-92.8916,-289.598)">
                    <path d="M731.137,496.971C642.788,493.268 551.024,528.873 466.982,616.312C382.939,703.751 302.246,826.577 237.936,967.564L249.477,971.451C313.507,831.077 389.413,707.484 472.52,621.018C555.627,534.552 637.265,499.738 731.137,496.971Z" style="fill:rgb(58,83,114);fill-rule:nonzero;"/>
                </g>
            </g>
            <g transform="matrix(4.21624,0,0,3.92267,235.955,-839.36)">
                <g transform="matrix(220.803,0,0,220.803,33.6735,514.286)">
                    <path d="M0.417,-0.208L0.417,-0.036L0.036,-0.266L0.036,-0.41L0.417,-0.641L0.417,-0.471L0.184,-0.339L0.417,-0.208Z" style="fill:rgb(58,83,114);fill-rule:nonzero;"/>
                </g>
            </g>
        </g>
    </g>
</svg>
