<?xml version="1.0" encoding="UTF-8" standalone="no"?>
<!DOCTYPE svg PUBLIC "-//W3C//DTD SVG 1.1//EN" "http://www.w3.org/Graphics/SVG/1.1/DTD/svg11.dtd">
<svg width="100%" height="100%" viewBox="0 0 2156 839" version="1.1" xmlns="http://www.w3.org/2000/svg" xmlns:xlink="http://www.w3.org/1999/xlink" xml:space="preserve" xmlns:serif="http://www.serif.com/" style="fill-rule:evenodd;clip-rule:evenodd;stroke-linejoin:round;stroke-miterlimit:2;">
    <g transform="matrix(1,0,0,1,-1145.54,-1905.43)">
        <g id="Logo" transform="matrix(0.948976,0,0,0.79733,755.014,1646.24)">
            <rect x="411.526" y="325.081" width="2271.92" height="1051.95" style="fill:none;"/>
            <clipPath id="_clip1">
                <rect x="411.526" y="325.081" width="2271.92" height="1051.95"/>
            </clipPath>
            <g clip-path="url(#_clip1)">
                <g transform="matrix(-4.21624,0,0,3.92267,2858.54,-836.492)">
                    <g transform="matrix(220.803,0,0,220.803,33.6735,514.286)">
                        <path d="M0.417,-0.208L0.417,-0.036L0.036,-0.266L0.036,-0.41L0.417,-0.641L0.417,-0.471L0.184,-0.339L0.417,-0.208Z" style="fill:rgb(58,83,114);fill-rule:nonzero;"/>
                    </g>
                </g>
                <g transform="matrix(1.24663,0,0,1.55575,204.893,-467.914)">
                    <g transform="matrix(461.632,0,0,461.632,802.716,1030.65)">
                        <path d="M0.491,-0.319L0.491,-0.414L0.197,-0.414L0.197,-0.614L0.538,-0.614L0.538,-0.711L0.079,-0.711L0.079,-0L0.54,-0L0.54,-0.097L0.197,-0.097L0.197,-0.319L0.491,-0.319Z" style="fill:rgb(58,83,114);fill-rule:nonzero;"/>
                    </g>
                    <g transform="matrix(461.632,0,0,461.632,1079.74,1030.65)">
                        <path d="M0.532,-0L0.532,-0.711L0.414,-0.711L0.413,-0.224L0.183,-0.711L0.064,-0.711L0.064,-0L0.183,-0L0.183,-0.489L0.414,-0L0.532,-0Z" style="fill:rgb(58,83,114);fill-rule:nonzero;"/>
                    </g>
                    <g transform="matrix(461.632,0,0,461.632,1356.76,1030.65)">
                        <path d="M0.067,-0L0.247,-0C0.28,-0 0.31,-0.004 0.339,-0.012C0.367,-0.02 0.393,-0.031 0.417,-0.045C0.437,-0.059 0.456,-0.075 0.473,-0.094C0.49,-0.113 0.505,-0.134 0.517,-0.157C0.529,-0.181 0.539,-0.207 0.546,-0.236C0.552,-0.264 0.556,-0.295 0.556,-0.327L0.556,-0.383C0.556,-0.416 0.552,-0.448 0.545,-0.478C0.538,-0.507 0.528,-0.534 0.515,-0.559C0.502,-0.583 0.486,-0.604 0.468,-0.624C0.449,-0.643 0.427,-0.659 0.403,-0.671C0.381,-0.684 0.357,-0.693 0.33,-0.7C0.303,-0.707 0.274,-0.711 0.243,-0.711L0.067,-0.711L0.067,-0ZM0.186,-0.615L0.243,-0.615C0.262,-0.615 0.28,-0.613 0.296,-0.609C0.312,-0.605 0.327,-0.599 0.34,-0.591C0.358,-0.581 0.373,-0.568 0.386,-0.552C0.399,-0.536 0.41,-0.518 0.417,-0.498C0.424,-0.482 0.428,-0.464 0.432,-0.445C0.435,-0.426 0.437,-0.405 0.437,-0.384L0.437,-0.327C0.437,-0.305 0.435,-0.285 0.432,-0.266C0.428,-0.246 0.424,-0.229 0.417,-0.212C0.41,-0.193 0.401,-0.176 0.39,-0.161C0.379,-0.147 0.366,-0.134 0.352,-0.125C0.338,-0.115 0.322,-0.108 0.304,-0.103C0.287,-0.098 0.268,-0.095 0.247,-0.095L0.186,-0.095L0.186,-0.615Z" style="fill:rgb(58,83,114);fill-rule:nonzero;"/>
                    </g>
                </g>
                <g transform="matrix(1.19552,-0.0304412,0.0243926,1.49197,465.875,244.983)">
                    <g id="rect5187" transform="matrix(0.261101,-0.0427846,0.0427846,0.261101,-40.7384,28.6765)">
                        <path d="M2488.66,568.989C2458.18,568.829 2426.55,570.162 2394.3,572.812L2345.2,725.057C2353.22,660.511 2359.86,621.382 2366.45,575.433C2161.58,596.831 1937.57,669.286 1820.69,756.917C1480.05,1012.32 1310.19,1225.55 1200.02,1406.07C1221.97,1492.1 1244.12,1597.01 1268.84,1725.25C1208.78,1644.85 1180.41,1649.14 1104.8,1577.63C1071.87,1641.36 1042.36,1700.58 1009.52,1755.43C921.836,1901.93 841.538,2212.18 897.424,2389.08C948.498,2550.74 1208.95,2239.24 1259.89,2154.72C1579.73,1624.07 1862.14,1374.71 2392.47,1115.41L1915.92,977.812C1958.86,984.846 1977.42,988.07 1989.55,990.34C2013.82,994.878 2012.39,995.613 2128.86,1015.43L2128.87,1015.43C2187.11,1025.34 2274.82,1040.02 2409.94,1062.33C2412.86,1062.6 2415.87,1062.95 2418.93,1063.34C2420,1063.48 2421.1,1063.64 2422.19,1063.79C2424.34,1064.09 2426.52,1064.43 2428.73,1064.79C2429.81,1064.96 2430.89,1065.13 2431.99,1065.32C2435.05,1065.85 2438.15,1066.41 2441.31,1067.05C2441.31,1067.05 2441.32,1067.04 2441.32,1067.05C2446.46,1068.07 2451.73,1069.26 2457.08,1070.53C2458.05,1070.76 2459.03,1071 2460.01,1071.24C2465.28,1072.52 2470.6,1073.89 2476.01,1075.39L2476.02,1075.39C2478.24,1074.35 2480.37,1073.31 2482.6,1072.26C2625.67,1005.35 2834.79,999.234 2804.18,731.516C2790.96,615.905 2657.2,569.871 2488.66,568.989L2488.66,568.989Z" style="fill:rgb(154,168,185);fill-rule:nonzero;"/>
                    </g>
                    <g id="path5176" transform="matrix(0.986839,-0.161705,0.161705,0.986839,-92.8916,-289.598)">
                        <path d="M188.494,1099.18L200.19,1033.31C216.64,1007.56 232.15,962.395 250.641,958.06C252.422,974.765 233.581,1024.78 224.926,1058.81C205.639,1065.14 196.908,1082.91 188.494,1099.18Z" style="fill:rgb(191,165,68);fill-rule:nonzero;"/>
                    </g>
                    <g id="path5183" transform="matrix(0.986839,-0.161705,0.161705,0.986839,-92.8916,-289.598)">
                        <path d="M731.137,496.971C642.788,493.268 551.024,528.873 466.982,616.312C382.939,703.751 302.246,826.577 237.936,967.564L249.477,971.451C313.507,831.077 389.413,707.484 472.52,621.018C555.627,534.552 637.265,499.738 731.137,496.971Z" style="fill:rgb(58,83,114);fill-rule:nonzero;"/>
                    </g>
                </g>
                <g transform="matrix(4.21624,0,0,3.92267,235.955,-839.36)">
                    <g transform="matrix(220.803,0,0,220.803,33.6735,514.286)">
                        <path d="M0.417,-0.208L0.417,-0.036L0.036,-0.266L0.036,-0.41L0.417,-0.641L0.417,-0.471L0.184,-0.339L0.417,-0.208Z" style="fill:rgb(58,83,114);fill-rule:nonzero;"/>
                    </g>
                </g>
            </g>
        </g>
    </g>
</svg>
